<?xml version="1.0" encoding="UTF-8"?>
<!DOCTYPE svg PUBLIC "-//W3C//DTD SVG 1.1//EN" "http://www.w3.org/Graphics/SVG/1.1/DTD/svg11.dtd">
<svg version="1.2" width="120.02mm" height="120.03mm" viewBox="4000 2000 12002 12003" preserveAspectRatio="xMidYMid" fill-rule="evenodd" stroke-width="28.222" stroke-linejoin="round" xmlns="http://www.w3.org/2000/svg" xmlns:ooo="http://xml.openoffice.org/svg/export" xmlns:xlink="http://www.w3.org/1999/xlink" xmlns:presentation="http://sun.com/xmlns/staroffice/presentation" xmlns:smil="http://www.w3.org/2001/SMIL20/" xmlns:anim="urn:oasis:names:tc:opendocument:xmlns:animation:1.0" xml:space="preserve">
 <defs class="EmbeddedBulletChars">
  <g id="bullet-char-template-57356" transform="scale(0.00048828125,-0.00048828125)">
   <path d="M 580,1141 L 1163,571 580,0 -4,571 580,1141 Z"/>
  </g>
  <g id="bullet-char-template-57354" transform="scale(0.00048828125,-0.00048828125)">
   <path d="M 8,1128 L 1137,1128 1137,0 8,0 8,1128 Z"/>
  </g>
  <g id="bullet-char-template-10146" transform="scale(0.00048828125,-0.00048828125)">
   <path d="M 174,0 L 602,739 174,1481 1456,739 174,0 Z M 1358,739 L 309,1346 659,739 1358,739 Z"/>
  </g>
  <g id="bullet-char-template-10132" transform="scale(0.00048828125,-0.00048828125)">
   <path d="M 2015,739 L 1276,0 717,0 1260,543 174,543 174,936 1260,936 717,1481 1274,1481 2015,739 Z"/>
  </g>
  <g id="bullet-char-template-10007" transform="scale(0.00048828125,-0.00048828125)">
   <path d="M 0,-2 C -7,14 -16,27 -25,37 L 356,567 C 262,823 215,952 215,954 215,979 228,992 255,992 264,992 276,990 289,987 310,991 331,999 354,1012 L 381,999 492,748 772,1049 836,1024 860,1049 C 881,1039 901,1025 922,1006 886,937 835,863 770,784 769,783 710,716 594,584 L 774,223 C 774,196 753,168 711,139 L 727,119 C 717,90 699,76 672,76 641,76 570,178 457,381 L 164,-76 C 142,-110 111,-127 72,-127 30,-127 9,-110 8,-76 1,-67 -2,-52 -2,-32 -2,-23 -1,-13 0,-2 Z"/>
  </g>
  <g id="bullet-char-template-10004" transform="scale(0.00048828125,-0.00048828125)">
   <path d="M 285,-33 C 182,-33 111,30 74,156 52,228 41,333 41,471 41,549 55,616 82,672 116,743 169,778 240,778 293,778 328,747 346,684 L 369,508 C 377,444 397,411 428,410 L 1163,1116 C 1174,1127 1196,1133 1229,1133 1271,1133 1292,1118 1292,1087 L 1292,965 C 1292,929 1282,901 1262,881 L 442,47 C 390,-6 338,-33 285,-33 Z"/>
  </g>
  <g id="bullet-char-template-9679" transform="scale(0.00048828125,-0.00048828125)">
   <path d="M 813,0 C 632,0 489,54 383,161 276,268 223,411 223,592 223,773 276,916 383,1023 489,1130 632,1184 813,1184 992,1184 1136,1130 1245,1023 1353,916 1407,772 1407,592 1407,412 1353,268 1245,161 1136,54 992,0 813,0 Z"/>
  </g>
  <g id="bullet-char-template-8226" transform="scale(0.00048828125,-0.00048828125)">
   <path d="M 346,457 C 273,457 209,483 155,535 101,586 74,649 74,723 74,796 101,859 155,911 209,963 273,989 346,989 419,989 480,963 531,910 582,859 608,796 608,723 608,648 583,586 532,535 482,483 420,457 346,457 Z"/>
  </g>
  <g id="bullet-char-template-8211" transform="scale(0.00048828125,-0.00048828125)">
   <path d="M -4,459 L 1135,459 1135,606 -4,606 -4,459 Z"/>
  </g>
  <g id="bullet-char-template-61548" transform="scale(0.00048828125,-0.00048828125)">
   <path d="M 173,740 C 173,903 231,1043 346,1159 462,1274 601,1332 765,1332 928,1332 1067,1274 1183,1159 1299,1043 1357,903 1357,740 1357,577 1299,437 1183,322 1067,206 928,148 765,148 601,148 462,206 346,322 231,437 173,577 173,740 Z"/>
  </g>
 </defs>
 <g class="Page">
  <g class="com.sun.star.drawing.CustomShape">
   <g id="id3">
    <rect class="BoundingBox" stroke="none" fill="none" x="4000" y="2000" width="12002" height="12003"/>
    <path fill="rgb(255,64,0)" stroke="none" d="M 16001,8001 C 16001,9054 15724,10089 15197,11001 14670,11913 13913,12670 13001,13197 12089,13724 11054,14001 10001,14001 8947,14001 7912,13724 7000,13197 6088,12670 5331,11913 4804,11001 4277,10089 4000,9054 4000,8001 4000,6947 4277,5912 4804,5000 5331,4088 6088,3331 7000,2804 7912,2277 8947,2000 10000,2000 11054,2000 12089,2277 13001,2804 13913,3331 14670,4088 15197,5000 15724,5912 16001,6947 16001,8000 L 16001,8001 Z"/>
   </g>
  </g>
  <g class="Graphic">
   <g id="id4">
    <rect class="BoundingBox" stroke="none" fill="none" x="5918" y="3917" width="8084" height="8084"/>
    <path fill="rgb(255,255,255)" stroke="none" d="M 12853,7871 C 12853,7726 12735,7608 12590,7608 12445,7608 12327,7726 12327,7871 12327,9176 11265,10238 9959,10238 8654,10238 7592,9176 7592,7871 7592,7726 7474,7608 7329,7608 7184,7608 7066,7726 7066,7871 7066,9378 8224,10619 9696,10752 L 9696,11466 8907,11466 C 8762,11466 8644,11584 8644,11729 8644,11874 8762,11992 8907,11992 L 11012,11992 C 11157,11992 11275,11874 11275,11729 11275,11584 11157,11466 11012,11466 L 10223,11466 10223,10752 C 11695,10619 12853,9378 12853,7871 L 12853,7871 Z"/>
    <path fill="rgb(255,255,255)" stroke="none" d="M 9960,3925 C 8944,3925 8118,4751 8118,5766 L 8118,7871 C 8118,8886 8944,9712 9960,9712 10975,9712 11801,8886 11801,7871 L 11801,5766 C 11801,4751 10975,3925 9960,3925 L 9960,3925 Z M 9960,9186 C 9324,9186 8793,8732 8671,8132 L 11248,8132 C 11126,8732 10595,9186 9960,9186 L 9960,9186 Z M 11275,6556 L 10486,6556 C 10340,6556 10223,6673 10223,6819 10223,6964 10340,7082 10486,7082 L 11275,7082 11275,7608 8644,7608 8644,7082 9433,7082 C 9579,7082 9696,6964 9696,6819 9696,6673 9579,6556 9433,6556 L 8644,6556 8644,6029 9433,6029 C 9579,6029 9696,5912 9696,5766 9696,5621 9579,5503 9433,5503 L 8671,5503 C 8793,4904 9324,4451 9960,4451 10595,4451 11126,4904 11248,5503 L 10486,5503 C 10340,5503 10223,5621 10223,5766 10223,5912 10340,6029 10486,6029 L 11275,6029 11275,6556 11275,6556 Z"/>
   </g>
  </g>
 </g>
</svg>