<?xml version="1.0" encoding="UTF-8"?>
<!DOCTYPE svg PUBLIC "-//W3C//DTD SVG 1.1//EN" "http://www.w3.org/Graphics/SVG/1.1/DTD/svg11.dtd">
<svg version="1.2" width="120.02mm" height="120.03mm" viewBox="4000 2000 12002 12003" preserveAspectRatio="xMidYMid" fill-rule="evenodd" stroke-width="28.222" stroke-linejoin="round" xmlns="http://www.w3.org/2000/svg" xmlns:ooo="http://xml.openoffice.org/svg/export" xmlns:xlink="http://www.w3.org/1999/xlink" xmlns:presentation="http://sun.com/xmlns/staroffice/presentation" xmlns:smil="http://www.w3.org/2001/SMIL20/" xmlns:anim="urn:oasis:names:tc:opendocument:xmlns:animation:1.0" xml:space="preserve">
 <defs class="EmbeddedBulletChars">
  <g id="bullet-char-template-57356" transform="scale(0.00048828125,-0.00048828125)">
   <path d="M 580,1141 L 1163,571 580,0 -4,571 580,1141 Z"/>
  </g>
  <g id="bullet-char-template-57354" transform="scale(0.00048828125,-0.00048828125)">
   <path d="M 8,1128 L 1137,1128 1137,0 8,0 8,1128 Z"/>
  </g>
  <g id="bullet-char-template-10146" transform="scale(0.00048828125,-0.00048828125)">
   <path d="M 174,0 L 602,739 174,1481 1456,739 174,0 Z M 1358,739 L 309,1346 659,739 1358,739 Z"/>
  </g>
  <g id="bullet-char-template-10132" transform="scale(0.00048828125,-0.00048828125)">
   <path d="M 2015,739 L 1276,0 717,0 1260,543 174,543 174,936 1260,936 717,1481 1274,1481 2015,739 Z"/>
  </g>
  <g id="bullet-char-template-10007" transform="scale(0.00048828125,-0.00048828125)">
   <path d="M 0,-2 C -7,14 -16,27 -25,37 L 356,567 C 262,823 215,952 215,954 215,979 228,992 255,992 264,992 276,990 289,987 310,991 331,999 354,1012 L 381,999 492,748 772,1049 836,1024 860,1049 C 881,1039 901,1025 922,1006 886,937 835,863 770,784 769,783 710,716 594,584 L 774,223 C 774,196 753,168 711,139 L 727,119 C 717,90 699,76 672,76 641,76 570,178 457,381 L 164,-76 C 142,-110 111,-127 72,-127 30,-127 9,-110 8,-76 1,-67 -2,-52 -2,-32 -2,-23 -1,-13 0,-2 Z"/>
  </g>
  <g id="bullet-char-template-10004" transform="scale(0.00048828125,-0.00048828125)">
   <path d="M 285,-33 C 182,-33 111,30 74,156 52,228 41,333 41,471 41,549 55,616 82,672 116,743 169,778 240,778 293,778 328,747 346,684 L 369,508 C 377,444 397,411 428,410 L 1163,1116 C 1174,1127 1196,1133 1229,1133 1271,1133 1292,1118 1292,1087 L 1292,965 C 1292,929 1282,901 1262,881 L 442,47 C 390,-6 338,-33 285,-33 Z"/>
  </g>
  <g id="bullet-char-template-9679" transform="scale(0.00048828125,-0.00048828125)">
   <path d="M 813,0 C 632,0 489,54 383,161 276,268 223,411 223,592 223,773 276,916 383,1023 489,1130 632,1184 813,1184 992,1184 1136,1130 1245,1023 1353,916 1407,772 1407,592 1407,412 1353,268 1245,161 1136,54 992,0 813,0 Z"/>
  </g>
  <g id="bullet-char-template-8226" transform="scale(0.00048828125,-0.00048828125)">
   <path d="M 346,457 C 273,457 209,483 155,535 101,586 74,649 74,723 74,796 101,859 155,911 209,963 273,989 346,989 419,989 480,963 531,910 582,859 608,796 608,723 608,648 583,586 532,535 482,483 420,457 346,457 Z"/>
  </g>
  <g id="bullet-char-template-8211" transform="scale(0.00048828125,-0.00048828125)">
   <path d="M -4,459 L 1135,459 1135,606 -4,606 -4,459 Z"/>
  </g>
  <g id="bullet-char-template-61548" transform="scale(0.00048828125,-0.00048828125)">
   <path d="M 173,740 C 173,903 231,1043 346,1159 462,1274 601,1332 765,1332 928,1332 1067,1274 1183,1159 1299,1043 1357,903 1357,740 1357,577 1299,437 1183,322 1067,206 928,148 765,148 601,148 462,206 346,322 231,437 173,577 173,740 Z"/>
  </g>
 </defs>
 <g class="Page">
  <g class="com.sun.star.drawing.CustomShape">
   <g id="id3">
    <rect class="BoundingBox" stroke="none" fill="none" x="4000" y="2000" width="12002" height="12003"/>
    <path fill="rgb(255,64,0)" stroke="none" d="M 16001,8001 C 16001,9054 15724,10089 15197,11001 14670,11913 13913,12670 13001,13197 12089,13724 11054,14001 10001,14001 8947,14001 7912,13724 7000,13197 6088,12670 5331,11913 4804,11001 4277,10089 4000,9054 4000,8001 4000,6947 4277,5912 4804,5000 5331,4088 6088,3331 7000,2804 7912,2277 8947,2000 10000,2000 11054,2000 12089,2277 13001,2804 13913,3331 14670,4088 15197,5000 15724,5912 16001,6947 16001,8000 L 16001,8001 Z"/>
   </g>
  </g>
  <g class="Graphic">
   <g id="id4">
    <rect class="BoundingBox" stroke="none" fill="none" x="6331" y="4230" width="7571" height="7571"/>
    <defs>
     <clipPath id="clip_path_1" clipPathUnits="userSpaceOnUse">
      <path d="M 6331,4230 L 13901,4230 13901,11800 6331,11800 6331,4230 Z"/>
     </clipPath>
    </defs>
    <g clip-path="url(#clip_path_1)">
     <path fill="rgb(255,255,255)" stroke="none" d="M 9886,4855 L 7977,6287 6578,6287 C 6442,6287 6331,6398 6331,6534 L 6331,9496 C 6331,9632 6442,9743 6578,9743 L 7977,9743 9886,11175 C 10047,11296 10281,11182 10281,10977 L 10281,5053 C 10281,4850 10048,4733 9886,4855 Z M 6825,9249 L 6825,6781 7812,6781 7812,9249 6825,9249 Z M 8306,9373 L 8306,6657 9787,5547 9787,10484 8306,9373 Z"/>
     <path fill="rgb(255,255,255)" stroke="none" d="M 12818,5397 C 12722,5300 12565,5300 12469,5397 12373,5493 12373,5650 12469,5746 13074,6351 13407,7157 13407,8015 13407,8873 13074,9679 12469,10284 12373,10381 12373,10537 12469,10633 12517,10681 12580,10706 12644,10706 12707,10706 12770,10682 12818,10633 13516,9935 13901,9005 13901,8015 13901,7025 13516,6095 12818,5397 L 12818,5397 Z"/>
     <path fill="rgb(255,255,255)" stroke="none" d="M 12120,6095 C 12024,5998 11867,5998 11771,6095 11675,6191 11674,6347 11771,6444 12637,7310 12637,8720 11771,9586 11674,9683 11675,9839 11771,9935 11819,9984 11882,10008 11945,10008 12009,10008 12072,9984 12120,9935 13178,8877 13178,7154 12120,6095 L 12120,6095 Z"/>
     <path fill="rgb(255,255,255)" stroke="none" d="M 11422,6793 C 11326,6697 11169,6697 11073,6793 10977,6890 10977,7046 11073,7142 11554,7624 11554,8407 11073,8888 10976,8985 10976,9141 11073,9237 11121,9285 11184,9310 11247,9310 11310,9310 11374,9285 11422,9237 12095,8563 12096,7467 11422,6793 L 11422,6793 Z"/>
    </g>
   </g>
  </g>
 </g>
</svg>